# xmcd
#
# Track frame offsets: 
#        150
#        18685
#        37031
#        56126
#        76209
#        93908
#        108492
#        123942
#        139552
#        156101
#        177503
#        191905
#        222024
#        245579
#
# Disc length: 3633 seconds
#
# Revision: 0
# Processed by: cddbd v1.5.2PL0 Copyright (c) Steve Scherf et al.
# Submitted via: ExactAudioCopy v0.99pb3
#
DISCID=c30e2f0e
DTITLE=Various Artist - Alternative Music Station (Promo CD 6.5. - 1.6.2002)
DYEAR=2002
DGENRE=Hip-Hop
TTITLE0=Royce Da 5'9'' - Rock City
TTITLE1=Royce Da 5'9'' - D-Elite Part 2
TTITLE2=Royce Da 5'9'' - Let's Go
TTITLE3=Royce Da 5'9'' - Get'cha Paper
TTITLE4=Royce Da 5'9'' - Boom
TTITLE5=Phantom Planet - California
TTITLE6=Phantom Planet - All Over Again
TTITLE7=Phantom Planet - Always On My Mind
TTITLE8=Phantom Planet - Lonely Day
TTITLE9=Phantom Planet - One Ray Of Sunlight
TTITLE10=Lauryn Hill - The Conquering Lion
TTITLE11=Lauryn Hill - Mr. Intentional
TTITLE12=Lauryn Hill - Mystery Of Iniquity
TTITLE13=Lauryn Hill - So Much Things To Say
EXTD=
EXTT0=
EXTT1=
EXTT2=
EXTT3=
EXTT4=
EXTT5=
EXTT6=
EXTT7=
EXTT8=
EXTT9=
EXTT10=
EXTT11=
EXTT12=
EXTT13=
PLAYORDER=
